<?xml version="1.0" encoding="UTF-8"?>
<svg xmlns="http://www.w3.org/2000/svg" xmlns:xlink="http://www.w3.org/1999/xlink" version="1.1" viewBox="0 0 500 500">
  <!-- Generator: Adobe Illustrator 29.8.1, SVG Export Plug-In . SVG Version: 2.1.1 Build 2)  -->
  <defs>
    <style>
      .st0, .st1, .st2, .st3, .st4, .st5, .st6, .st7, .st8, .st9, .st10, .st11, .st12, .st13, .st14, .st15, .st16, .st17, .st18, .st19, .st20, .st21, .st22, .st23 {
        fill: none;
      }

      .st24 {
        fill: #7f2440;
      }

      .st25 {
        fill: #b82d48;
      }

      .st26 {
        fill: #972844;
      }

      .st27 {
        fill: #ae2b47;
      }

      .st28 {
        fill: #8a2642;
      }

      .st29 {
        fill: #6f213e;
      }

      .st30 {
        fill: #a92a46;
      }

      .st31 {
        fill: #7c2340;
      }

      .st32 {
        fill: url(#linear-gradient9);
      }

      .st33 {
        fill: url(#linear-gradient3);
      }

      .st34 {
        fill: url(#linear-gradient6);
      }

      .st35 {
        fill: url(#linear-gradient7);
      }

      .st36 {
        fill: url(#linear-gradient5);
      }

      .st37 {
        fill: url(#linear-gradient4);
      }

      .st38 {
        fill: #982844;
      }

      .st39 {
        fill: #bd2d49;
      }

      .st40 {
        fill: #812441;
      }

      .st41 {
        fill: #d5314c;
      }

      .st42 {
        fill: #a12945;
      }

      .st43 {
        fill: #a52a46;
      }

      .st44 {
        fill: #852541;
      }

      .st45 {
        fill: url(#linear-gradient31);
      }

      .st46 {
        fill: url(#linear-gradient30);
      }

      .st47 {
        fill: url(#linear-gradient32);
      }

      .st48 {
        fill: url(#linear-gradient33);
      }

      .st49 {
        fill: url(#linear-gradient46);
      }

      .st50 {
        fill: url(#linear-gradient43);
      }

      .st51 {
        fill: url(#linear-gradient45);
      }

      .st52 {
        fill: url(#linear-gradient29);
      }

      .st53 {
        fill: url(#linear-gradient13);
      }

      .st54 {
        fill: url(#linear-gradient12);
      }

      .st55 {
        fill: url(#linear-gradient11);
      }

      .st56 {
        fill: url(#linear-gradient10);
      }

      .st57 {
        fill: url(#linear-gradient14);
      }

      .st58 {
        fill: url(#linear-gradient23);
      }

      .st59 {
        fill: url(#linear-gradient24);
      }

      .st60 {
        fill: #7a2340;
      }

      .st61 {
        fill: #ca2f4b;
      }

      .st62 {
        fill: #882542;
      }

      .st63 {
        stroke: url(#linear-gradient28);
      }

      .st63, .st64, .st1, .st2, .st3, .st4, .st5, .st65, .st66, .st14, .st15, .st16, .st17, .st18, .st19, .st20, .st21, .st22, .st23 {
        stroke-width: 30px;
      }

      .st63, .st64, .st1, .st3, .st4, .st5, .st65, .st66 {
        stroke-linejoin: round;
      }

      .st63, .st64, .st67, .st65, .st66 {
        fill: #f3f3f3;
      }

      .st64 {
        stroke: url(#linear-gradient27);
      }

      .st68 {
        fill: #ad2b47;
      }

      .st69 {
        fill: #a72a46;
      }

      .st70 {
        fill: #7e2440;
      }

      .st71 {
        fill: #b32c47;
      }

      .st1 {
        stroke: url(#linear-gradient26);
      }

      .st72 {
        fill: #872542;
      }

      .st73 {
        fill: #70213e;
      }

      .st74 {
        fill: #9f2945;
      }

      .st75 {
        fill: #9b2844;
      }

      .st76 {
        fill: #962744;
      }

      .st77 {
        fill: #6e213e;
      }

      .st78 {
        fill: #74223f;
      }

      .st79 {
        fill: #d3314c;
      }

      .st80 {
        fill: #992844;
      }

      .st81 {
        fill: #b02b47;
      }

      .st82 {
        fill: #942743;
      }

      .st83 {
        fill: #cc304b;
      }

      .st84 {
        fill: #b52c48;
      }

      .st85 {
        fill: #b12b47;
      }

      .st86 {
        fill: #d0304b;
      }

      .st87 {
        fill: #ac2b47;
      }

      .st88 {
        fill: #c42e4a;
      }

      .st89 {
        fill: #73223f;
      }

      .st90 {
        fill: #8c2642;
      }

      .st91 {
        fill: #822441;
      }

      .st92 {
        fill: #c72f4a;
      }

      .st93 {
        fill: #b62c48;
      }

      .st94 {
        fill: #d4314c;
      }

      .st95 {
        fill: #71223f;
      }

      .st96 {
        fill: #782340;
      }

      .st97 {
        fill: #d7314c;
      }

      .st98 {
        fill: #932743;
      }

      .st99 {
        fill: #8b2642;
      }

      .st100 {
        fill: #db324d;
      }

      .st2 {
        stroke: url(#linear-gradient8);
      }

      .st2, .st3, .st4, .st6, .st7, .st8, .st9, .st10, .st11, .st12, .st13, .st14, .st15, .st16, .st17, .st18, .st19, .st20, .st21, .st22, .st23 {
        stroke-linecap: round;
      }

      .st2, .st6, .st7, .st8, .st9, .st10, .st11, .st12, .st13, .st14, .st15, .st16, .st17, .st18, .st19, .st20, .st21, .st22, .st23 {
        stroke-miterlimit: 10;
      }

      .st101 {
        fill: #902643;
      }

      .st102 {
        fill: #c02e49;
      }

      .st103 {
        fill: #9e2945;
      }

      .st104 {
        fill: #bb2d49;
      }

      .st105 {
        fill: #bc2d49;
      }

      .st106 {
        fill: #c62f4a;
      }

      .st107 {
        fill: #b92d48;
      }

      .st108 {
        fill: #7d2340;
      }

      .st109 {
        fill: #77233f;
      }

      .st110 {
        fill: #ce304b;
      }

      .st111 {
        fill: #832441;
      }

      .st112 {
        fill: #d2314c;
      }

      .st113 {
        fill: #7b2340;
      }

      .st114 {
        fill: #c12e49;
      }

      .st3 {
        stroke: url(#linear-gradient44);
      }

      .st4 {
        stroke: url(#linear-gradient22);
      }

      .st115 {
        fill: #da324d;
      }

      .st116 {
        fill: #792340;
      }

      .st117 {
        fill: #d6314c;
      }

      .st118 {
        fill: #c32e4a;
      }

      .st119 {
        fill: #ab2b46;
      }

      .st120 {
        fill: #912743;
      }

      .st121 {
        fill: #be2d49;
      }

      .st122 {
        fill: #72223f;
      }

      .st123 {
        fill: #ba2d48;
      }

      .st124 {
        fill: #75223f;
      }

      .st125 {
        fill: #a82a46;
      }

      .st126 {
        fill: #b42c48;
      }

      .st127 {
        fill: #d8324d;
      }

      .st128 {
        fill: #862541;
      }

      .st129 {
        fill: #aa2a46;
      }

      .st130 {
        fill: #892542;
      }

      .st5 {
        stroke: url(#linear-gradient);
      }

      .st131 {
        fill: #bf2e49;
      }

      .st132 {
        fill: #cb304b;
      }

      .st6 {
        stroke: #f3f3f3;
      }

      .st133 {
        fill: #9a2844;
      }

      .st134 {
        fill: #a22945;
      }

      .st135 {
        fill: #8e2643;
      }

      .st136 {
        fill: #802441;
      }

      .st137 {
        fill: #9d2845;
      }

      .st138 {
        fill: #cd304b;
      }

      .st65 {
        stroke: url(#linear-gradient2);
      }

      .st66 {
        stroke: url(#linear-gradient1);
      }

      .st139 {
        fill: #d1304c;
      }

      .st140 {
        fill: #b72c48;
      }

      .st141 {
        fill: #cf304b;
      }

      .st142 {
        fill: #76223f;
      }

      .st143 {
        fill: #922743;
      }

      .st7 {
        stroke: url(#linear-gradient18);
      }

      .st7, .st8, .st9, .st10, .st11, .st12, .st13 {
        stroke-width: 25px;
      }

      .st8 {
        stroke: url(#linear-gradient17);
      }

      .st9 {
        stroke: url(#linear-gradient15);
      }

      .st10 {
        stroke: url(#linear-gradient19);
      }

      .st11 {
        stroke: url(#linear-gradient16);
      }

      .st12 {
        stroke: url(#linear-gradient20);
      }

      .st13 {
        stroke: url(#linear-gradient21);
      }

      .st144 {
        fill: #6d213e;
      }

      .st145 {
        fill: #c52f4a;
      }

      .st14 {
        stroke: url(#linear-gradient25);
      }

      .st15 {
        stroke: url(#linear-gradient40);
      }

      .st16 {
        stroke: url(#linear-gradient41);
      }

      .st17 {
        stroke: url(#linear-gradient42);
      }

      .st18 {
        stroke: url(#linear-gradient38);
      }

      .st19 {
        stroke: url(#linear-gradient35);
      }

      .st20 {
        stroke: url(#linear-gradient37);
      }

      .st21 {
        stroke: url(#linear-gradient34);
      }

      .st22 {
        stroke: url(#linear-gradient39);
      }

      .st23 {
        stroke: url(#linear-gradient36);
      }

      .st146 {
        fill: #842541;
      }

      .st147 {
        fill: #8d2642;
      }

      .st148 {
        display: none;
      }

      .st149 {
        fill: #9c2844;
      }

      .st150 {
        fill: #b22c47;
      }

      .st151 {
        clip-path: url(#clippath);
      }

      .st152 {
        fill: #d9324d;
      }

      .st153 {
        fill: #c82f4a;
      }

      .st154 {
        fill: #a62a46;
      }

      .st155 {
        fill: #c92f4b;
      }

      .st156 {
        fill: #af2b47;
      }

      .st157 {
        fill: #952744;
      }

      .st158 {
        fill: #c22e4a;
      }

      .st159 {
        fill: #a32945;
      }

      .st160 {
        fill: #8f2643;
      }

      .st161 {
        fill: #a02945;
      }
    </style>
    <linearGradient id="linear-gradient" x1="134.79" y1="284.71" x2="281.48" y2="284.71" gradientUnits="userSpaceOnUse">
      <stop offset="0" stop-color="#6d213e"/>
      <stop offset="1" stop-color="#db324d"/>
    </linearGradient>
    <linearGradient id="linear-gradient1" x1="63.29" y1="111.4" x2="236.29" y2="111.4" xlink:href="#linear-gradient"/>
    <linearGradient id="linear-gradient2" x1="273.59" y1="375.4" x2="446.59" y2="375.4" xlink:href="#linear-gradient"/>
    <linearGradient id="linear-gradient3" x1="24.65" y1="249.68" x2="472.54" y2="249.68" xlink:href="#linear-gradient"/>
    <linearGradient id="linear-gradient4" x1="18.2" y1="247.08" x2="277.68" y2="247.08" xlink:href="#linear-gradient"/>
    <linearGradient id="linear-gradient5" x1="214.4" y1="247.08" x2="473.89" y2="247.08" xlink:href="#linear-gradient"/>
    <linearGradient id="linear-gradient6" x1="94.11" y1="257.46" x2="405.89" y2="257.46" xlink:href="#linear-gradient"/>
    <linearGradient id="linear-gradient7" x1="22.86" y1="252.39" x2="481.93" y2="252.39" xlink:href="#linear-gradient"/>
    <linearGradient id="linear-gradient8" x1="113.53" y1="252.39" x2="391.26" y2="252.39" xlink:href="#linear-gradient"/>
    <linearGradient id="linear-gradient9" x1="97.43" y1="370.19" x2="409.42" y2="370.19" xlink:href="#linear-gradient"/>
    <linearGradient id="linear-gradient10" x1="174.48" y1="178.38" x2="330.86" y2="178.38" xlink:href="#linear-gradient"/>
    <clipPath id="clippath">
      <path class="st0" d="M405.47,176.76c0,29.16-7.98,56.4-21.92,79.7-.21.32-.43.64-.53.96-6.6,12.02-37.88,44.38-43.1,63.21-2.87,10.32-3.89,21.51-4.1,33.11-.96-.11-2.07,1.79-3.13,1.79h-164.52c-1.38,0-2.79-4.42-4.06-4.1-.21-11.6-1.15-20.48-4.02-30.8-5.21-18.84-36.5-51.19-43.1-63.21-.11-.32-.32-.64-.53-.96-13.94-23.3-21.92-50.55-21.92-79.7,0-85.88,69.6-155.47,155.47-155.47s155.47,69.6,155.47,155.47Z"/>
    </clipPath>
    <linearGradient id="linear-gradient11" x1="27.58" y1="246.57" x2="472.42" y2="246.57" xlink:href="#linear-gradient"/>
    <linearGradient id="linear-gradient12" x1="86.28" y1="254.61" x2="482.47" y2="254.61" xlink:href="#linear-gradient"/>
    <linearGradient id="linear-gradient13" x1="12.18" y1="348.46" x2="482.39" y2="348.46" xlink:href="#linear-gradient"/>
    <linearGradient id="linear-gradient14" x1="39.9" y1="195.48" x2="454.7" y2="195.48" xlink:href="#linear-gradient"/>
    <linearGradient id="linear-gradient15" x1="90.58" y1="161.81" x2="251.88" y2="161.81" xlink:href="#linear-gradient"/>
    <linearGradient id="linear-gradient16" x1="266.42" y1="161.81" x2="393.22" y2="161.81" xlink:href="#linear-gradient"/>
    <linearGradient id="linear-gradient17" x1="214.83" y1="212.93" x2="367.77" y2="212.93" xlink:href="#linear-gradient"/>
    <linearGradient id="linear-gradient18" x1="90.58" y1="212.93" x2="199.54" y2="212.93" xlink:href="#linear-gradient"/>
    <linearGradient id="linear-gradient19" x1="154.71" y1="262.58" x2="259.42" y2="262.58" xlink:href="#linear-gradient"/>
    <linearGradient id="linear-gradient20" x1="271.85" y1="262.58" x2="395.68" y2="262.58" xlink:href="#linear-gradient"/>
    <linearGradient id="linear-gradient21" x1="90.98" y1="262.58" x2="144.14" y2="262.58" xlink:href="#linear-gradient"/>
    <linearGradient id="linear-gradient22" x1="25.4" y1="295.55" x2="377.67" y2="295.55" xlink:href="#linear-gradient"/>
    <linearGradient id="linear-gradient23" x1="331.03" y1="191.41" x2="394.3" y2="191.41" xlink:href="#linear-gradient"/>
    <linearGradient id="linear-gradient24" x1="321.5" y1="191.41" x2="403.83" y2="191.41" xlink:href="#linear-gradient"/>
    <linearGradient id="linear-gradient25" x1="7.24" y1="234.54" x2="494.36" y2="234.54" xlink:href="#linear-gradient"/>
    <linearGradient id="linear-gradient26" x1="119.18" y1="294.75" x2="273.2" y2="294.75" xlink:href="#linear-gradient"/>
    <linearGradient id="linear-gradient27" x1="43.69" y1="112.2" x2="224.66" y2="112.2" xlink:href="#linear-gradient"/>
    <linearGradient id="linear-gradient28" x1="265.71" y1="390.9" x2="446.67" y2="390.9" xlink:href="#linear-gradient"/>
    <linearGradient id="linear-gradient29" x1="66.69" y1="148.36" x2="377.07" y2="148.36" xlink:href="#linear-gradient"/>
    <linearGradient id="linear-gradient30" x1="221.88" y1="242.22" x2="479.86" y2="242.22" xlink:href="#linear-gradient"/>
    <linearGradient id="linear-gradient31" x1="116.9" y1="242.22" x2="203.75" y2="242.22" xlink:href="#linear-gradient"/>
    <linearGradient id="linear-gradient32" x1="66.69" y1="336.09" x2="377.07" y2="336.09" xlink:href="#linear-gradient"/>
    <linearGradient id="linear-gradient33" x1="30.14" y1="246.55" x2="447.66" y2="246.55" xlink:href="#linear-gradient"/>
    <linearGradient id="linear-gradient34" x1="31.72" y1="156.1" x2="128.53" y2="156.1" xlink:href="#linear-gradient"/>
    <linearGradient id="linear-gradient35" x1="152.45" y1="157.06" x2="182.45" y2="157.06" xlink:href="#linear-gradient"/>
    <linearGradient id="linear-gradient36" x1="327.11" y1="157.06" x2="357.11" y2="157.06" xlink:href="#linear-gradient"/>
    <linearGradient id="linear-gradient37" x1="206.38" y1="156.1" x2="303.19" y2="156.1" xlink:href="#linear-gradient"/>
    <linearGradient id="linear-gradient38" x1="88.97" y1="343.9" x2="185.78" y2="343.9" xlink:href="#linear-gradient"/>
    <linearGradient id="linear-gradient39" x1="209.7" y1="344.85" x2="239.7" y2="344.85" xlink:href="#linear-gradient"/>
    <linearGradient id="linear-gradient40" x1="263.62" y1="343.9" x2="293.62" y2="343.9" xlink:href="#linear-gradient"/>
    <linearGradient id="linear-gradient41" x1="438.28" y1="344.85" x2="468.28" y2="344.85" xlink:href="#linear-gradient"/>
    <linearGradient id="linear-gradient42" x1="317.55" y1="343.9" x2="414.36" y2="343.9" xlink:href="#linear-gradient"/>
    <linearGradient id="linear-gradient43" x1="60.73" y1="270.05" x2="417.73" y2="270.05" xlink:href="#linear-gradient"/>
    <linearGradient id="linear-gradient44" x1="159.01" y1="211.08" x2="462.95" y2="211.08" xlink:href="#linear-gradient"/>
    <linearGradient id="linear-gradient45" x1="7.49" y1="259.61" x2="232.76" y2="259.61" xlink:href="#linear-gradient"/>
    <linearGradient id="linear-gradient46" x1="266.29" y1="259.61" x2="491.56" y2="259.61" xlink:href="#linear-gradient"/>
  </defs>
  <g id="Layer_13" class="st148">
    <path class="st67" d="M914.36-20.25v236.48c0,28.11-22.79,50.9-50.9,50.9h-258.03c-28.11,0-50.9-22.79-50.9-50.9V-20.25c0-28.12,22.79-50.91,50.9-50.91h258.03c28.11,0,50.9,22.79,50.9,50.91Z"/>
  </g>
  <g id="Layer_1" class="st148">
    <path class="st5" d="M149.79,179.02v157.46c0,21.49,13.66,38.91,30.51,38.91h101.18"/>
    <path class="st66" d="M221.29,72.77v77.25c0,16.02-12.94,29-28.96,29h-85.09c-15.98,0-28.96-12.98-28.96-29v-77.25c0-16.02,12.98-29,28.96-29h85.09c16.02,0,28.96,12.98,28.96,29Z"/>
    <path class="st65" d="M431.59,336.77v77.25c0,16.02-12.94,29-28.96,29h-85.09c-15.98,0-28.96-12.98-28.96-29v-77.25c0-16.02,12.98-29,28.96-29h85.09c16.02,0,28.96,12.98,28.96,29Z"/>
  </g>
  <g id="Layer_2" class="st148">
    <path class="st33" d="M472.54,297.48h0c0,48.86-39.61,88.47-88.47,88.47H113.12c-48.86,0-88.47-39.61-88.47-88.47v-1.79c0-49.83,40.4-90.25,90.25-90.25,2.2,0,4.4.08,6.56.24,17.41-53.57,67.72-92.28,127.09-92.28s109.7,38.72,127.1,92.29c1.64-.13,3.3-.21,4.96-.24,50.56-.94,91.94,41.46,91.94,92.03Z"/>
    <path class="st67" d="M284.12,95.21h-14.28v128.94c0,11.39-9.23,20.62-20.62,20.62s-20.62-9.23-20.62-20.62V95.21h-14.23c-7.89,0-11.96-9.33-6.6-15.11l34.85-37.69c3.56-3.82,9.64-3.82,13.2,0l34.9,37.69c5.31,5.77,1.24,15.11-6.6,15.11Z"/>
  </g>
  <g id="Layer_3" class="st148">
    <path class="st37" d="M225.37,43.36h.68c38.57,0,63.49,40.8,45.87,75.12L115.71,422.78c-8.83,17.2-26.54,28.02-45.87,28.02h0c-38.53,0-63.45-40.72-45.92-75.04L179.45,71.46c8.81-17.25,26.55-28.1,45.92-28.1Z"/>
    <path class="st36" d="M421.57,43.36h.68c38.57,0,63.49,40.8,45.87,75.12l-156.22,304.31c-8.83,17.2-26.54,28.02-45.87,28.02h0c-38.53,0-63.45-40.72-45.92-75.04L375.66,71.46c8.81-17.25,26.55-28.1,45.92-28.1Z"/>
  </g>
  <g id="Layer_4" class="st148">
    <circle class="st67" cx="250.01" cy="182.17" r="117.92"/>
    <path class="st34" d="M242.84,26.46c-79.82,3.57-144.71,68.22-148.55,148.03-1.33,27.54,4.5,53.61,15.79,76.51l1.23,2.48,107.72,215.99c12.74,25.55,49.2,25.55,61.94,0l107.72-215.99,1.23-2.48c10.23-20.75,15.98-44.12,15.98-68.81,0-88.49-73.67-159.72-163.05-155.73ZM288.14,251c-11.3,6.26-24.3,9.84-38.14,9.84s-26.83-3.58-38.11-9.84c-25.52-14.17-42.34-42.13-40.38-73.8,2.43-39.23,34.32-71.13,73.55-73.53,45.71-2.79,83.62,33.43,83.62,78.53,0,29.6-16.37,55.39-40.54,68.81Z"/>
  </g>
  <g id="Layer_5" class="st148">
    <path class="st35" d="M252.39,52.86c53.3,0,103.4,20.76,141.09,58.44,37.69,37.69,58.44,87.79,58.44,141.09s-20.76,103.4-58.44,141.09-87.79,58.44-141.09,58.44-103.4-20.76-141.09-58.44c-37.69-37.69-58.44-87.79-58.44-141.09s20.76-103.4,58.44-141.09c37.69-37.69,87.79-58.44,141.09-58.44M252.39,22.86C125.63,22.86,22.86,125.63,22.86,252.39s102.77,229.53,229.53,229.53,229.53-102.77,229.53-229.53S379.16,22.86,252.39,22.86h0Z"/>
    <line class="st2" x1="128.53" y1="252.39" x2="376.26" y2="252.39"/>
  </g>
  <g id="Layer_6" class="st148">
    <rect class="st67" x="22.18" y="32.35" width="460.97" height="433.37" rx="65.21" ry="65.21"/>
    <path class="st32" d="M409.42,465.73H97.43v-92.18c0-54.62,44.28-98.89,98.89-98.89h114.21c54.62,0,98.89,44.28,98.89,98.89v92.18Z"/>
    <circle class="st56" cx="252.67" cy="178.38" r="78.19"/>
  </g>
  <g id="Layer_7" class="st148">
    <g class="st151">
      <path class="st144" d="M94.53,21.29v334.25V21.29Z"/>
      <rect class="st144" x="94.53" y="21.29" width="2.83" height="334.25"/>
      <rect class="st77" x="97.35" y="21.29" width="2.83" height="334.25"/>
      <rect class="st29" x="100.18" y="21.29" width="2.83" height="334.25"/>
      <rect class="st73" x="103.01" y="21.29" width="2.83" height="334.25"/>
      <rect class="st95" x="105.83" y="21.29" width="2.83" height="334.25"/>
      <rect class="st122" x="108.66" y="21.29" width="2.83" height="334.25"/>
      <rect class="st89" x="111.49" y="21.29" width="2.83" height="334.25"/>
      <rect class="st78" x="114.31" y="21.29" width="2.83" height="334.25"/>
      <rect class="st124" x="117.14" y="21.29" width="2.83" height="334.25"/>
      <rect class="st142" x="119.97" y="21.29" width="2.83" height="334.25"/>
      <rect class="st109" x="122.8" y="21.29" width="2.83" height="334.25"/>
      <rect class="st96" x="125.62" y="21.29" width="2.83" height="334.25"/>
      <rect class="st116" x="128.45" y="21.29" width="2.83" height="334.25"/>
      <rect class="st60" x="131.28" y="21.29" width="2.83" height="334.25"/>
      <rect class="st113" x="134.1" y="21.29" width="2.83" height="334.25"/>
      <rect class="st31" x="136.93" y="21.29" width="2.83" height="334.25"/>
      <rect class="st108" x="139.76" y="21.29" width="2.83" height="334.25"/>
      <rect class="st70" x="142.58" y="21.29" width="2.83" height="334.25"/>
      <rect class="st24" x="145.41" y="21.29" width="2.83" height="334.25"/>
      <rect class="st136" x="148.24" y="21.29" width="2.83" height="334.25"/>
      <rect class="st40" x="151.06" y="21.29" width="2.83" height="334.25"/>
      <rect class="st91" x="153.89" y="21.29" width="2.83" height="334.25"/>
      <rect class="st111" x="156.72" y="21.29" width="2.83" height="334.25"/>
      <rect class="st146" x="159.54" y="21.29" width="2.83" height="334.25"/>
      <rect class="st44" x="162.37" y="21.29" width="2.83" height="334.25"/>
      <rect class="st128" x="165.2" y="21.29" width="2.83" height="334.25"/>
      <rect class="st72" x="168.02" y="21.29" width="2.83" height="334.25"/>
      <rect class="st62" x="170.85" y="21.29" width="2.83" height="334.25"/>
      <rect class="st130" x="173.68" y="21.29" width="2.83" height="334.25"/>
      <rect class="st28" x="176.5" y="21.29" width="2.83" height="334.25"/>
      <rect class="st99" x="179.33" y="21.29" width="2.83" height="334.25"/>
      <rect class="st90" x="182.16" y="21.29" width="2.83" height="334.25"/>
      <rect class="st147" x="184.98" y="21.29" width="2.83" height="334.25"/>
      <rect class="st135" x="187.81" y="21.29" width="2.83" height="334.25"/>
      <rect class="st160" x="190.64" y="21.29" width="2.83" height="334.25"/>
      <rect class="st101" x="193.46" y="21.29" width="2.83" height="334.25"/>
      <rect class="st120" x="196.29" y="21.29" width="2.83" height="334.25"/>
      <rect class="st143" x="199.12" y="21.29" width="2.83" height="334.25"/>
      <rect class="st98" x="201.94" y="21.29" width="2.83" height="334.25"/>
      <rect class="st82" x="204.77" y="21.29" width="2.83" height="334.25"/>
      <rect class="st157" x="207.6" y="21.29" width="2.83" height="334.25"/>
      <rect class="st76" x="210.43" y="21.29" width="2.83" height="334.25"/>
      <rect class="st26" x="213.25" y="21.29" width="2.83" height="334.25"/>
      <rect class="st38" x="216.08" y="21.29" width="2.83" height="334.25"/>
      <rect class="st80" x="218.91" y="21.29" width="2.83" height="334.25"/>
      <rect class="st133" x="221.73" y="21.29" width="2.83" height="334.25"/>
      <rect class="st75" x="224.56" y="21.29" width="2.83" height="334.25"/>
      <rect class="st149" x="227.39" y="21.29" width="2.83" height="334.25"/>
      <rect class="st137" x="230.21" y="21.29" width="2.83" height="334.25"/>
      <rect class="st103" x="233.04" y="21.29" width="2.83" height="334.25"/>
      <rect class="st74" x="235.87" y="21.29" width="2.83" height="334.25"/>
      <rect class="st161" x="238.69" y="21.29" width="2.83" height="334.25"/>
      <rect class="st42" x="241.52" y="21.29" width="2.83" height="334.25"/>
      <rect class="st134" x="244.35" y="21.29" width="2.83" height="334.25"/>
      <rect class="st159" x="247.17" y="21.29" width="2.83" height="334.25"/>
      <rect class="st43" x="250" y="21.29" width="2.83" height="334.25"/>
      <rect class="st154" x="252.83" y="21.29" width="2.83" height="334.25"/>
      <rect class="st69" x="255.65" y="21.29" width="2.83" height="334.25"/>
      <rect class="st125" x="258.48" y="21.29" width="2.83" height="334.25"/>
      <rect class="st30" x="261.31" y="21.29" width="2.83" height="334.25"/>
      <rect class="st129" x="264.13" y="21.29" width="2.83" height="334.25"/>
      <rect class="st119" x="266.96" y="21.29" width="2.83" height="334.25"/>
      <rect class="st87" x="269.79" y="21.29" width="2.83" height="334.25"/>
      <rect class="st68" x="272.61" y="21.29" width="2.83" height="334.25"/>
      <rect class="st27" x="275.44" y="21.29" width="2.83" height="334.25"/>
      <rect class="st156" x="278.27" y="21.29" width="2.83" height="334.25"/>
      <rect class="st81" x="281.09" y="21.29" width="2.83" height="334.25"/>
      <rect class="st85" x="283.92" y="21.29" width="2.83" height="334.25"/>
      <rect class="st150" x="286.75" y="21.29" width="2.83" height="334.25"/>
      <rect class="st71" x="289.57" y="21.29" width="2.83" height="334.25"/>
      <rect class="st126" x="292.4" y="21.29" width="2.83" height="334.25"/>
      <rect class="st84" x="295.23" y="21.29" width="2.83" height="334.25"/>
      <rect class="st93" x="298.06" y="21.29" width="2.83" height="334.25"/>
      <rect class="st140" x="300.88" y="21.29" width="2.83" height="334.25"/>
      <rect class="st25" x="303.71" y="21.29" width="2.83" height="334.25"/>
      <rect class="st107" x="306.54" y="21.29" width="2.83" height="334.25"/>
      <rect class="st123" x="309.36" y="21.29" width="2.83" height="334.25"/>
      <rect class="st104" x="312.19" y="21.29" width="2.83" height="334.25"/>
      <rect class="st105" x="315.02" y="21.29" width="2.83" height="334.25"/>
      <rect class="st39" x="317.84" y="21.29" width="2.83" height="334.25"/>
      <rect class="st121" x="320.67" y="21.29" width="2.83" height="334.25"/>
      <rect class="st131" x="323.5" y="21.29" width="2.83" height="334.25"/>
      <rect class="st102" x="326.32" y="21.29" width="2.83" height="334.25"/>
      <rect class="st114" x="329.15" y="21.29" width="2.83" height="334.25"/>
      <rect class="st158" x="331.98" y="21.29" width="2.83" height="334.25"/>
      <rect class="st118" x="334.8" y="21.29" width="2.83" height="334.25"/>
      <rect class="st88" x="337.63" y="21.29" width="2.83" height="334.25"/>
      <rect class="st145" x="340.46" y="21.29" width="2.83" height="334.25"/>
      <rect class="st106" x="343.28" y="21.29" width="2.83" height="334.25"/>
      <rect class="st92" x="346.11" y="21.29" width="2.83" height="334.25"/>
      <rect class="st153" x="348.94" y="21.29" width="2.83" height="334.25"/>
      <rect class="st155" x="351.76" y="21.29" width="2.83" height="334.25"/>
      <rect class="st61" x="354.59" y="21.29" width="2.83" height="334.25"/>
      <rect class="st132" x="357.42" y="21.29" width="2.83" height="334.25"/>
      <rect class="st83" x="360.24" y="21.29" width="2.83" height="334.25"/>
      <rect class="st138" x="363.07" y="21.29" width="2.83" height="334.25"/>
      <rect class="st110" x="365.9" y="21.29" width="2.83" height="334.25"/>
      <rect class="st141" x="368.72" y="21.29" width="2.83" height="334.25"/>
      <rect class="st86" x="371.55" y="21.29" width="2.83" height="334.25"/>
      <rect class="st139" x="374.38" y="21.29" width="2.83" height="334.25"/>
      <rect class="st112" x="377.2" y="21.29" width="2.83" height="334.25"/>
      <rect class="st79" x="380.03" y="21.29" width="2.83" height="334.25"/>
      <rect class="st94" x="382.86" y="21.29" width="2.83" height="334.25"/>
      <rect class="st41" x="385.69" y="21.29" width="2.83" height="334.25"/>
      <rect class="st117" x="388.51" y="21.29" width="2.83" height="334.25"/>
      <rect class="st97" x="391.34" y="21.29" width="2.83" height="334.25"/>
      <rect class="st127" x="394.17" y="21.29" width="2.83" height="334.25"/>
      <rect class="st152" x="396.99" y="21.29" width="2.83" height="334.25"/>
      <rect class="st115" x="399.82" y="21.29" width="2.83" height="334.25"/>
      <rect class="st100" x="402.65" y="21.29" width="2.83" height="334.25"/>
      <path class="st100" d="M405.47,355.54V21.29v334.25Z"/>
    </g>
    <path class="st67" d="M364.44,373.29c0,6.47-2.59,12.35-6.82,16.58-4.35,4.23-10.23,6.94-16.7,6.94h-181.84c-13.06,0-23.52-10.59-23.52-23.52,0-6.47,2.59-12.35,6.82-16.58,3.29-3.29,7.65-5.53,12.35-6.35,1.41-.35,2.82-.47,4.35-.47h181.84c1.18,0,2.35.12,3.41.24,11.41,1.65,20.11,11.41,20.11,23.17Z"/>
    <path class="st67" d="M349.39,420.09c0,6.47-2.25,12.35-5.92,16.58-3.78,4.23-8.89,6.94-14.51,6.94h-157.93c-11.34,0-20.43-10.59-20.43-23.52,0-6.47,2.25-12.35,5.92-16.58,2.86-3.29,6.64-5.53,10.73-6.35,1.23-.35,2.45-.47,3.78-.47h157.93c1.02,0,2.04.12,2.96.24,9.91,1.65,17.47,11.41,17.47,23.17Z"/>
    <path class="st67" d="M285.25,443.66c1.29,3.06,1.93,6.47,1.93,10.12,0,6.94-2.57,13.06-6.64,17.64-4.18,4.47-9.75,7.29-16.07,7.29h-28.93c-12.53,0-22.71-11.17-22.71-24.94,0-3.65.64-7.06,1.93-10.12"/>
    <path class="st6" d="M127.07,197.06"/>
    <path class="st67" d="M143.39,153.7c-1.72,0-3.46-.3-5.17-.92-7.78-2.86-11.77-11.47-8.91-19.25,6.74-18.35,16.73-35.05,29.71-49.64,13.32-14.97,29.18-27.07,47.16-35.95,7.43-3.67,16.42-.63,20.09,6.8,3.67,7.43.63,16.42-6.8,20.09-14.5,7.17-27.3,16.93-38.04,29-10.47,11.77-18.53,25.24-23.97,40.04-2.23,6.07-7.97,9.83-14.08,9.83Z"/>
  </g>
  <g id="Layer_8" class="st148">
    <ellipse class="st67" cx="250.02" cy="236.71" rx="132.12" ry="116.73"/>
    <path class="st55" d="M456.27,288.37c7.19,0,13.29-5.31,14.23-12.44,1.27-9.61,1.92-19.41,1.92-29.37s-.65-19.48-1.88-28.96c-.93-7.2-7-12.62-14.26-12.62h-26.74c-6.24,0-11.8-4.03-13.64-9.99-3.13-10.11-7.17-19.82-12.02-29.05-2.91-5.53-1.83-12.3,2.58-16.72l18.93-18.93c5.09-5.09,5.64-13.17,1.27-18.88-11.89-15.53-25.78-29.43-41.28-41.34-5.71-4.39-13.81-3.84-18.9,1.25l-18.94,18.94c-4.42,4.42-11.21,5.49-16.74,2.57-9.23-4.88-18.95-8.92-29.07-12.07-5.95-1.85-9.97-7.41-9.97-13.64v-26.84c0-7.18-5.31-13.28-12.43-14.22-9.59-1.27-19.37-1.92-29.33-1.92s-19.48.65-28.96,1.88c-7.2.94-12.62,7-12.62,14.26v26.8c0,6.23-4.02,11.79-9.98,13.64-10.14,3.15-19.9,7.2-29.16,12.08-5.53,2.91-12.31,1.84-16.73-2.57l-18.95-18.95c-5.09-5.09-13.18-5.64-18.9-1.26-15.5,11.9-29.4,25.78-41.31,41.3-4.39,5.71-3.83,13.8,1.26,18.9l18.95,18.95c4.42,4.42,5.49,11.22,2.58,16.75-4.86,9.23-8.91,18.95-12.05,29.07-1.85,5.97-7.42,10-13.66,10h-26.77c-7.26,0-13.32,5.42-14.26,12.62-1.23,9.48-1.88,19.15-1.88,28.96s.66,19.76,1.92,29.37c.94,7.12,7.04,12.44,14.23,12.44h26.79c6.23,0,11.79,4.02,13.64,9.97,3.15,10.12,7.2,19.83,12.07,29.07,2.92,5.53,1.85,12.32-2.57,16.74l-18.89,18.89c-5.1,5.1-5.64,13.2-1.25,18.91,11.93,15.5,25.81,29.39,41.33,41.28,5.71,4.38,13.8,3.82,18.89-1.27l18.89-18.89c4.41-4.41,11.19-5.49,16.72-2.58,9.24,4.86,18.98,8.9,29.11,12.05,5.95,1.85,9.97,7.41,9.97,13.64v26.67c0,7.26,5.42,13.32,12.62,14.26,9.48,1.23,19.15,1.88,28.96,1.88s19.74-.66,29.33-1.92c7.12-.94,12.43-7.04,12.43-14.22v-26.71c0-6.23,4.02-11.78,9.96-13.64,10.1-3.15,19.8-7.19,29.03-12.04,5.53-2.91,12.31-1.84,16.72,2.58l18.88,18.88c5.09,5.09,13.18,5.64,18.89,1.26,15.5-11.89,29.4-25.79,41.31-41.31,4.38-5.71,3.83-13.8-1.26-18.89l-18.87-18.87c-4.42-4.42-5.49-11.2-2.58-16.73,4.86-9.22,8.9-18.92,12.04-29.02,1.85-5.95,7.41-9.97,13.64-9.97h26.75ZM334.6,272.27c-1.67,5.64-3.88,11-6.58,16.1-8.25,15.38-20.88,28.01-36.26,36.3-5.05,2.71-10.42,4.92-16.05,6.58-8.12,2.53-16.73,3.83-25.71,3.83s-17.5-1.31-25.62-3.79c-5.55-1.67-10.91-3.88-15.96-6.58-15.42-8.25-28.1-20.93-36.39-36.35-2.66-5.05-4.92-10.42-6.58-16.01-2.48-8.12-3.79-16.73-3.79-25.66s1.31-17.54,3.79-25.71c1.71-5.59,3.92-10.96,6.63-16.01,8.3-15.38,20.97-28.05,36.35-36.26,5.05-2.71,10.42-4.92,16.01-6.63,8.12-2.44,16.69-3.74,25.57-3.74s17.54,1.31,25.66,3.79c5.64,1.67,11,3.92,16.1,6.63,15.33,8.25,27.96,20.88,36.21,36.21,2.71,5.1,4.96,10.46,6.63,16.1,2.48,8.12,3.79,16.73,3.79,25.62s-1.31,17.5-3.79,25.57Z"/>
  </g>
  <g id="Layer_9" class="st148">
    <path class="st54" d="M466.21,295.84c7.34,0,13.49-5.48,14.43-12.76,1.21-9.32,1.83-18.82,1.83-28.47s-.62-18.99-1.81-28.24c-.94-7.29-7.09-12.77-14.43-12.77h-25.73c-6.34,0-11.97-4.1-13.85-10.14-3.03-9.71-6.9-19.05-11.54-27.93-2.96-5.67-1.99-12.6,2.54-17.13l18.23-18.23c5.19-5.19,5.66-13.41,1.18-19.22-11.56-15.03-25.03-28.52-40.04-40.1-5.82-4.49-14.05-4.03-19.24,1.17l-18.24,18.24c-4.53,4.53-11.47,5.51-17.15,2.53-8.84-4.63-18.12-8.5-27.78-11.54-6.1-1.92-10.29-7.51-10.29-13.9v-25.57c0-7.49-5.59-13.77-13.01-14.72-9.22-1.18-18.61-1.8-28.17-1.8s-18.81.61-27.98,1.78c-7.43.95-13.03,7.23-13.03,14.73v25.32c0,6.52-4.28,12.22-10.5,14.18-9.54,3.01-18.73,6.82-27.47,11.38-5.79,3.02-12.86,2.04-17.49-2.59l-17.91-17.91c-5.3-5.3-13.7-5.78-19.63-1.2-14.86,11.49-28.21,24.82-39.71,39.7-4.58,5.93-4.1,14.33,1.2,19.63l24.64,24.64c.71.71.87,1.81.39,2.7h0s147.48,0,147.48,0c8.81,0,17.3,1.29,25.31,3.74,5.56,1.65,10.85,3.87,15.88,6.54,15.12,8.14,27.57,20.59,35.71,35.71,2.67,5.03,4.89,10.32,6.54,15.88,2.45,8.01,3.74,16.5,3.74,25.26s-1.29,17.26-3.74,25.22c-1.65,5.56-3.82,10.85-6.49,15.88-8.14,15.17-20.59,27.62-35.76,35.8-4.98,2.67-10.27,4.85-15.83,6.49-8.01,2.49-16.5,3.78-25.35,3.78H116.07q-.09.13-.17.27c.27.75.12,1.59-.46,2.17l-24.9,24.9c-5.2,5.2-5.66,13.43-1.17,19.25,11.6,15.01,25.06,28.48,40.09,40.04,5.82,4.48,14.04,4.01,19.23-1.18l18.18-18.18c4.53-4.53,11.45-5.5,17.13-2.54,8.85,4.62,18.16,8.49,27.83,11.52,6.1,1.91,10.3,7.5,10.3,13.9v25.67c0,7.35,5.48,13.5,12.77,14.43,9.25,1.19,18.67,1.81,28.24,1.81s19.13-.62,28.43-1.83c7.28-.94,12.76-7.09,12.76-14.43v-25.7c0-6.39,4.19-11.98,10.29-13.9,9.64-3.03,18.91-6.89,27.75-11.51,5.67-2.97,12.6-1.99,17.13,2.54l18.18,18.18c5.19,5.19,13.41,5.66,19.23,1.18,15.01-11.56,28.49-25.04,40.07-40.07,4.48-5.82,4.02-14.04-1.18-19.23l-18.17-18.17c-4.53-4.53-5.5-11.46-2.54-17.13,4.62-8.83,8.48-18.09,11.51-27.74,1.92-6.1,7.51-10.29,13.9-10.29h25.74Z"/>
    <path class="st67" d="M247.3,310.15v-21.5H64.19c-16.18,0-29.29-13.89-29.29-31.05s13.11-31.05,29.29-31.05h183.11v-21.42c0-11.88,13.25-18.01,21.45-9.94l53.52,52.47c5.42,5.36,5.42,14.52,0,19.87l-53.52,52.55c-8.2,8-21.45,1.86-21.45-9.94Z"/>
  </g>
  <g id="Layer_10" class="st148">
    <path class="st53" d="M482.39,339.14v18.64c0,12.17-11.58,22.02-25.87,22.02H38.02c-14.26,0-25.84-9.85-25.84-22.02v-18.64c0-12.17,11.58-22.02,25.84-22.02h418.51c14.29,0,25.87,9.85,25.87,22.02Z"/>
    <path class="st57" d="M454.7,101.18v215.94H39.9V101.18c0-15.08,12.24-27.33,27.33-27.33h360.12c15.12,0,27.36,12.24,27.36,27.33Z"/>
    <path class="st67" d="M425.23,129.74v187.38H69.34v-187.38c0-15.12,12.24-27.36,27.36-27.36h301.2c15.08,0,27.33,12.24,27.33,27.36Z"/>
    <line class="st9" x1="103.08" y1="161.81" x2="239.38" y2="161.81"/>
    <line class="st11" x1="278.92" y1="161.81" x2="380.72" y2="161.81"/>
    <line class="st8" x1="227.33" y1="212.93" x2="355.27" y2="212.93"/>
    <line class="st7" x1="103.08" y1="212.93" x2="187.04" y2="212.93"/>
    <line class="st10" x1="167.21" y1="262.58" x2="246.92" y2="262.58"/>
    <line class="st12" x1="284.35" y1="262.58" x2="383.18" y2="262.58"/>
    <line class="st13" x1="103.48" y1="262.58" x2="131.64" y2="262.58"/>
    <rect class="st67" x="507.72" y="-71.95" width="460.97" height="433.37" rx="65.21" ry="65.21"/>
  </g>
  <g id="Layer_11" class="st148">
    <path class="st67" d="M483.74,109.05v236.48c0,28.11-22.79,50.9-50.9,50.9H174.8c-28.11,0-50.9-22.79-50.9-50.9V109.05c0-28.12,22.79-50.91,50.9-50.91h258.03c28.11,0,50.9,22.79,50.9,50.91Z"/>
    <polyline class="st4" points="40.4 399.68 165.78 238.04 235.46 334.37 362.67 191.41"/>
    <g>
      <polygon class="st58" points="394.3 155.53 373.25 227.29 353.2 204.56 331.03 179.38 394.3 155.53"/>
      <path class="st59" d="M373.25,238.09c-2.5,0-4.93-1.11-6.74-3.16l-42.23-47.91c-2.33-2.65-3.29-6.48-2.53-10.12.76-3.64,3.13-6.58,6.26-7.76l63.27-23.86c3.41-1.28,7.19-.28,9.74,2.61,2.55,2.89,3.44,7.16,2.3,11.05l-21.05,71.76c-1.04,3.55-3.63,6.24-6.85,7.1-.73.19-1.46.29-2.19.29ZM348.66,184.12l20.42,23.17,10.18-34.71-30.6,11.54Z"/>
    </g>
  </g>
  <g id="Layer_12" class="st148">
    <path class="st67" d="M444.05,107.55v254c0,30.19-24.48,54.67-54.67,54.67H112.23c-30.19,0-54.67-24.48-54.67-54.67V107.55c0-30.2,24.48-54.68,54.67-54.68h277.15c30.19,0,54.67,24.48,54.67,54.68Z"/>
    <path class="st14" d="M22.24,272.02h57.68c15.19,0,28.19-10.9,30.85-25.86l16.95-95.53c6.33-35.65,58.03-33.94,61.99,2.05l21.05,191.15c4,36.36,56.45,37.55,62.1,1.41l34.61-221.38c5.48-35.03,55.78-35.44,61.83-.5l22.27,128.74c2.6,15.02,15.63,25.99,30.87,25.99h56.92"/>
  </g>
  <g id="Layer_14" class="st148">
    <path class="st1" d="M134.18,183.59v166.23c0,22.69,14.42,41.08,32.21,41.08h106.81"/>
    <path class="st64" d="M209.66,71.43v81.55c0,16.91-13.66,30.61-30.57,30.61h-89.83c-16.87,0-30.57-13.7-30.57-30.61v-81.55c0-16.91,13.7-30.61,30.57-30.61h89.83c16.91,0,30.57,13.7,30.57,30.61Z"/>
    <path class="st63" d="M431.67,350.13v81.55c0,16.91-13.66,30.61-30.57,30.61h-89.83c-16.87,0-30.57-13.7-30.57-30.61v-81.55c0-16.91,13.7-30.61,30.57-30.61h89.83c16.91,0,30.57,13.7,30.57,30.61Z"/>
  </g>
  <g id="Layer_15" class="st148">
    <path class="st67" d="M431.24,121.02v263.8c0,31.36-25.43,56.78-56.78,56.78H86.61c-31.36,0-56.78-25.43-56.78-56.78V121.02c0-31.37,25.43-56.79,56.78-56.79h287.85c31.36,0,56.78,25.43,56.78,56.79Z"/>
    <rect class="st52" x="66.69" y="116.89" width="310.38" height="62.93" rx="29.79" ry="29.79"/>
    <rect class="st46" x="221.88" y="210.76" width="257.98" height="62.93" rx="29.79" ry="29.79"/>
    <rect class="st45" x="116.9" y="210.76" width="86.85" height="62.93" rx="29.79" ry="29.79"/>
    <rect class="st47" x="66.69" y="304.62" width="310.38" height="62.93" rx="29.79" ry="29.79"/>
  </g>
  <g id="Layer_16" class="st148">
    <path class="st67" d="M280.95,71.49l35.92,110.55c2.61,8.03,10.09,13.47,18.54,13.47h116.24c18.88,0,26.73,24.16,11.46,35.26l-94.04,68.32c-6.83,4.96-9.69,13.76-7.08,21.79l35.92,110.55c5.84,17.96-14.72,32.89-30,21.79l-94.04-68.32c-6.83-4.96-16.08-4.96-22.92,0l-94.04,68.32c-15.28,11.1-35.83-3.83-30-21.79l35.92-110.55c2.61-8.03-.25-16.83-7.08-21.79l-94.04-68.32c-15.28-11.1-7.43-35.26,11.46-35.26h116.24c8.44,0,15.93-5.44,18.54-13.47l35.92-110.55c5.84-17.96,31.24-17.96,37.08,0Z"/>
    <path class="st48" d="M257.44,60.51l35.92,110.55c2.61,8.03,10.09,13.47,18.54,13.47h116.24c18.88,0,26.73,24.16,11.46,35.26l-94.04,68.32c-6.83,4.96-9.69,13.76-7.08,21.79l35.92,110.55c5.84,17.96-14.72,32.89-30,21.79l-94.04-68.32c-6.83-4.96-16.08-4.96-22.92,0l-94.04,68.32c-15.28,11.1-35.83-3.83-30-21.79l35.92-110.55c2.61-8.03-.25-16.83-7.08-21.79l-94.04-68.32c-15.28-11.1-7.43-35.26,11.46-35.26h116.24c8.44,0,15.93-5.44,18.54-13.47l35.92-110.55c5.84-17.96,31.24-17.96,37.08,0Z"/>
  </g>
  <g id="Layer_17" class="st148">
    <rect class="st21" x="46.72" y="87.48" width="66.82" height="137.25" rx="33.41" ry="33.41"/>
    <line class="st19" x1="167.45" y1="89.6" x2="167.45" y2="224.52"/>
    <line class="st23" x1="342.11" y1="89.6" x2="342.11" y2="224.52"/>
    <rect class="st20" x="221.38" y="87.48" width="66.82" height="137.25" rx="33.41" ry="33.41"/>
    <rect class="st18" x="103.97" y="275.27" width="66.82" height="137.25" rx="33.41" ry="33.41"/>
    <line class="st22" x1="224.7" y1="277.4" x2="224.7" y2="412.31"/>
    <line class="st15" x1="278.62" y1="276.44" x2="278.62" y2="411.35"/>
    <line class="st16" x1="453.28" y1="277.4" x2="453.28" y2="412.31"/>
    <rect class="st17" x="332.55" y="275.27" width="66.82" height="137.25" rx="33.41" ry="33.41"/>
  </g>
  <g id="Layer_18" class="st148">
    <path class="st50" d="M338.72,121.55c27.03,0,49.01,21.99,49.01,49.01v198.97c0,27.03-21.99,49.01-49.01,49.01h-198.97c-27.03,0-49.01-21.99-49.01-49.01v-198.97c0-27.03,21.99-49.01,49.01-49.01h198.97M338.72,91.55h-198.97c-43.64,0-79.01,35.38-79.01,79.01v198.97c0,43.64,35.38,79.01,79.01,79.01h198.97c43.64,0,79.01-35.38,79.01-79.01v-198.97c0-43.64-35.38-79.01-79.01-79.01h0Z"/>
    <path class="st3" d="M174.01,228.13c23.8,30.67,47.6,61.34,71.4,92.01,71.98-77.53,130.55-140.6,202.54-218.13"/>
  </g>
  <g id="Layer_19" class="st148">
    <path d="M250.27,47.59c22.24,0,40.34,18.09,40.34,40.34v158.26c0,22.24-18.09,40.34-40.34,40.34h-31.15c-22.24,0-40.34-18.09-40.34-40.34V87.92c0-22.24,18.09-40.34,40.34-40.34h31.15M250.27,17.59h-31.15c-38.85,0-70.34,31.49-70.34,70.34v158.26c0,38.85,31.49,70.34,70.34,70.34h31.15c38.85,0,70.34-31.49,70.34-70.34V87.92c0-38.85-31.49-70.34-70.34-70.34h0Z"/>
    <path d="M298.05,212.78c22.24,0,40.34,18.09,40.34,40.34v158.26c0,22.24-18.09,40.34-40.34,40.34h-31.15c-22.24,0-40.34-18.09-40.34-40.34v-158.26c0-22.24,18.09-40.34,40.34-40.34h31.15M298.05,182.78h-31.15c-38.85,0-70.34,31.49-70.34,70.34v158.26c0,38.85,31.49,70.34,70.34,70.34h31.15c38.85,0,70.34-31.49,70.34-70.34v-158.26c0-38.85-31.49-70.34-70.34-70.34h0Z"/>
  </g>
  <g id="Layer_20">
    <path class="st51" d="M140.04,82.88s.06,0,.08,0l60.83.24c14.08.06,22.52,15.67,14.85,27.48l-88.01,135.51c-4.56,7.03-4.61,16.07-.13,23.15l90.66,143.03c6.61,10.43-.88,24.04-13.23,24.04h-62.59c-8.59,0-16.62-4.3-21.39-11.45L27.46,284.28c-10.73-16.11-10.62-37.11.27-53.1L122.35,92.24c3.99-5.85,10.61-9.35,17.69-9.36M140.04,70.88h0c-11.06,0-21.38,5.46-27.61,14.6L17.82,224.42c-6.69,9.83-10.26,21.31-10.33,33.2-.06,11.89,3.39,23.41,9.99,33.31l93.67,140.6c7.01,10.52,18.73,16.8,31.37,16.8h62.59c10.09,0,19.37-5.49,24.23-14.33,4.86-8.84,4.53-19.62-.87-28.14l-90.66-143.03c-1.97-3.11-1.95-7.1.06-10.19l88.01-135.51c5.94-9.15,6.41-20.79,1.22-30.39-5.19-9.6-15.18-15.58-26.09-15.63l-60.83-.24h-.13Z"/>
    <path class="st49" d="M359,82.88c7.08,0,13.7,3.5,17.69,9.36l94.62,138.94c10.89,16,11,37,.27,53.1l-93.67,140.6c-4.77,7.15-12.79,11.45-21.39,11.45h-62.59c-12.34,0-19.83-13.62-13.23-24.04l90.66-143.03c4.49-7.08,4.44-16.12-.13-23.15l-88.01-135.51c-7.67-11.81.77-27.42,14.85-27.48l60.83-.24s.06,0,.08,0M359,70.88h-.11s-60.84.24-60.84.24c-10.91.04-20.9,6.03-26.09,15.63-5.19,9.6-4.72,21.24,1.22,30.39l88.01,135.51c2,3.08,2.02,7.08.06,10.19l-90.66,143.03c-5.4,8.52-5.73,19.3-.87,28.14,4.86,8.84,14.15,14.33,24.23,14.33h62.59c12.64,0,24.37-6.28,31.37-16.8l93.67-140.6c6.59-9.9,10.05-21.42,9.99-33.31-.06-11.89-3.63-23.37-10.33-33.2l-94.62-138.94c-6.23-9.14-16.55-14.6-27.61-14.6h0Z"/>
  </g>
</svg>